<svg width="25" height="24" viewBox="0 0 25 24" fill="none" xmlns="http://www.w3.org/2000/svg">
<path d="M17.375 1.5H7.625C5.55875 1.5 3.875 3.18375 3.875 5.25V18.75C3.875 20.8163 5.55875 22.5 7.625 22.5H17.375C19.4413 22.5 21.125 20.8163 21.125 18.75V5.25C21.125 3.18375 19.4413 1.5 17.375 1.5ZM5.375 5.25C5.375 4.00875 6.38375 3 7.625 3H17.375C18.6162 3 19.625 4.00875 19.625 5.25V8.25H5.375V5.25ZM19.625 18.75C19.625 19.9912 18.6162 21 17.375 21H7.625C6.38375 21 5.375 19.9912 5.375 18.75V9.75H19.625V18.75Z" fill="#079F9F"/>
<path d="M17 6.375H14.75C14.3375 6.375 14 6.0375 14 5.625C14 5.2125 14.3375 4.875 14.75 4.875H17C17.4125 4.875 17.75 5.2125 17.75 5.625C17.75 6.0375 17.4125 6.375 17 6.375Z" fill="#079F9F"/>
<path d="M13.25 12.75H11.75C11.3375 12.75 11 12.4125 11 12C11 11.5875 11.3375 11.25 11.75 11.25H13.25C13.6625 11.25 14 11.5875 14 12C14 12.4125 13.6625 12.75 13.25 12.75Z" fill="#079F9F"/>
<path d="M9.125 12.75H7.625C7.2125 12.75 6.875 12.4125 6.875 12C6.875 11.5875 7.2125 11.25 7.625 11.25H9.125C9.5375 11.25 9.875 11.5875 9.875 12C9.875 12.4125 9.5375 12.75 9.125 12.75Z" fill="#079F9F"/>
<path d="M17.375 12.75H15.875C15.4625 12.75 15.125 12.4125 15.125 12C15.125 11.5875 15.4625 11.25 15.875 11.25H17.375C17.7875 11.25 18.125 11.5875 18.125 12C18.125 12.4125 17.7875 12.75 17.375 12.75Z" fill="#079F9F"/>
<path d="M13.25 15.75H11.75C11.3375 15.75 11 15.4125 11 15C11 14.5875 11.3375 14.25 11.75 14.25H13.25C13.6625 14.25 14 14.5875 14 15C14 15.4125 13.6625 15.75 13.25 15.75Z" fill="#079F9F"/>
<path d="M9.125 15.75H7.625C7.2125 15.75 6.875 15.4125 6.875 15C6.875 14.5875 7.2125 14.25 7.625 14.25H9.125C9.5375 14.25 9.875 14.5875 9.875 15C9.875 15.4125 9.5375 15.75 9.125 15.75Z" fill="#079F9F"/>
<path d="M17.375 15.75H15.875C15.4625 15.75 15.125 15.4125 15.125 15C15.125 14.5875 15.4625 14.25 15.875 14.25H17.375C17.7875 14.25 18.125 14.5875 18.125 15C18.125 15.4125 17.7875 15.75 17.375 15.75Z" fill="#079F9F"/>
<path d="M13.25 18.75H11.75C11.3375 18.75 11 18.4125 11 18C11 17.5875 11.3375 17.25 11.75 17.25H13.25C13.6625 17.25 14 17.5875 14 18C14 18.4125 13.6625 18.75 13.25 18.75Z" fill="#079F9F"/>
<path d="M9.125 18.75H7.625C7.2125 18.75 6.875 18.4125 6.875 18C6.875 17.5875 7.2125 17.25 7.625 17.25H9.125C9.5375 17.25 9.875 17.5875 9.875 18C9.875 18.4125 9.5375 18.75 9.125 18.75Z" fill="#079F9F"/>
<path d="M17.375 18.75H15.875C15.4625 18.75 15.125 18.4125 15.125 18C15.125 17.5875 15.4625 17.25 15.875 17.25H17.375C17.7875 17.25 18.125 17.5875 18.125 18C18.125 18.4125 17.7875 18.75 17.375 18.75Z" fill="#079F9F"/>
</svg>
