<svg width="838" height="797" viewBox="0 0 838 797" fill="none" xmlns="http://www.w3.org/2000/svg">
<g clip-path="url(#clip0_63934_9634)">
<rect width="838" height="797" fill="white"/>
<path d="M285.729 391.808C287.398 393.388 288.723 395.293 289.625 397.404C290.526 399.515 290.985 401.787 290.972 404.081C290.959 408.794 289.075 413.309 285.733 416.642C282.39 419.973 277.862 421.852 273.135 421.864H217.378V510.498C217.391 512.793 216.934 515.066 216.033 517.178C215.133 519.29 213.808 521.196 212.142 522.778C210.511 524.458 208.553 525.788 206.389 526.686C204.224 527.583 201.898 528.03 199.554 527.998C197.252 528.013 194.971 527.558 192.853 526.66C190.735 525.762 188.823 524.441 187.237 522.778C185.569 521.196 184.244 519.291 183.343 517.179C182.442 515.067 181.985 512.793 182 510.498V386.581C182.567 367.948 189.362 352.052 202.386 338.892C215.41 325.73 231.17 318.768 249.665 318.002H273.167C275.5 317.966 277.816 318.397 279.978 319.27C282.14 320.143 284.104 321.44 285.755 323.085C287.447 324.677 288.788 326.604 289.69 328.742C290.593 330.88 291.038 333.183 290.997 335.503C290.983 340.215 289.101 344.731 285.758 348.063C282.416 351.395 277.887 353.273 273.16 353.286H251.616C242.751 353.441 234.283 356.983 227.959 363.18C221.635 369.378 217.938 377.758 217.63 386.593H273.123C275.469 386.558 277.8 387.002 279.968 387.898C282.135 388.795 284.097 390.126 285.729 391.808Z" fill="black"/>
<path d="M310.33 364.175C308.606 362.583 307.242 360.657 306.325 358.519C305.407 356.381 304.957 354.079 305.003 351.761C304.968 349.425 305.422 347.108 306.338 344.951C307.254 342.795 308.614 340.844 310.33 339.223C311.942 337.559 313.887 336.238 316.042 335.34C318.197 334.441 320.517 333.985 322.859 334C327.666 334.015 332.272 335.892 335.67 339.221C339.069 342.55 340.984 347.06 340.997 351.768C341.042 354.086 340.59 356.388 339.673 358.525C338.756 360.663 337.392 362.589 335.67 364.181C333.991 365.822 331.993 367.116 329.793 367.988C327.593 368.859 325.238 369.289 322.865 369.252C320.535 369.273 318.224 368.833 316.07 367.961C313.917 367.089 311.965 365.8 310.33 364.175ZM335.67 391.672C337.367 393.251 338.714 395.154 339.63 397.263C340.546 399.372 341.011 401.643 340.997 403.934V510.513C341.012 512.806 340.547 515.078 339.631 517.188C338.715 519.298 337.367 521.202 335.67 522.782C334.013 524.462 332.022 525.792 329.82 526.689C327.618 527.586 325.25 528.031 322.865 527.998C318.157 527.914 313.666 526.044 310.335 522.782C307.006 519.522 305.096 515.124 305.01 510.513V403.934C305.1 399.325 307.009 394.929 310.339 391.669C313.669 388.409 318.158 386.537 322.865 386.45C325.251 386.417 327.618 386.864 329.82 387.763C332.023 388.661 334.013 389.991 335.67 391.672Z" fill="black"/>
<path d="M481.414 407.635C495.137 421.37 502 438.002 502 457.528C502 477.054 495.137 493.685 481.414 507.422C467.693 521.144 451.055 528.004 431.501 528H378.486C373.875 527.914 369.477 526.046 366.217 522.787C362.956 519.527 361.086 515.132 361.002 510.523V335.753C360.969 333.419 361.414 331.102 362.311 328.947C363.209 326.791 364.538 324.842 366.217 323.22C367.797 321.559 369.701 320.238 371.811 319.34C373.921 318.443 376.193 317.986 378.486 318C383.193 318.013 387.704 319.889 391.033 323.216C394.362 326.544 396.238 331.053 396.251 335.759V396.65C406.916 390.322 419.099 387.008 431.501 387.063C451.055 387.058 467.693 393.916 481.414 407.635ZM456.457 482.437C463.324 475.547 466.754 467.192 466.751 457.372C466.747 447.55 463.315 439.195 456.457 432.306C449.838 425.689 440.861 421.972 431.501 421.972C422.14 421.972 413.164 425.689 406.544 432.306C399.682 439.195 396.251 447.55 396.251 457.372C396.251 467.192 399.682 475.547 406.544 482.437C413.165 489.05 422.142 492.765 431.501 492.765C440.86 492.765 449.837 489.05 456.457 482.437Z" fill="black"/>
<path d="M656 460.04V459.193C655.431 478.367 648.277 494.629 634.537 507.978C620.797 521.326 604.28 528 584.984 528C565.293 528 548.542 521.139 534.73 507.413C520.918 493.688 514.009 477.051 514 457.5C514 437.945 520.91 421.308 534.73 407.588C548.55 393.867 565.302 387.004 584.984 387C603.534 387 619.627 393.298 633.262 405.895C634.203 406.841 634.96 407.588 635.535 408.151H635.251C638.003 411.504 639.411 415.751 639.2 420.073C638.989 424.395 637.175 428.486 634.108 431.56L577.295 487.98C576.177 489.057 574.938 490.003 573.603 490.801C577.258 492.063 581.095 492.73 584.965 492.775C589.641 492.856 594.283 491.983 598.606 490.213C602.93 488.443 606.841 485.812 610.101 482.482C617.007 475.624 620.46 467.305 620.46 457.526C620.962 453.339 623.063 449.504 626.331 446.812C629.634 444.003 633.862 442.496 638.211 442.58C642.466 442.532 646.591 444.037 649.801 446.812C653.068 449.504 655.17 453.339 655.671 457.526H655.956L656 460.04ZM559.879 432.331C552.965 439.243 549.512 447.617 549.521 457.45C549.539 460.121 549.825 462.784 550.373 465.399C550.884 464.524 551.559 463.754 552.361 463.13L592.679 422.821C590.16 422.269 587.589 421.984 585.009 421.968C580.329 421.889 575.681 422.768 571.357 424.551C567.035 426.334 563.126 428.982 559.879 432.331Z" fill="black"/>
<path d="M205.5 284C216.822 284 226 275.045 226 264C226 252.954 216.822 244 205.5 244C194.178 244 185 252.954 185 264C185 275.045 194.178 284 205.5 284Z" fill="#F8A63F"/>
<path d="M263.5 237C273.164 237 281 229.388 281 220C281 210.611 273.164 203 263.5 203C253.835 203 246 210.611 246 220C246 229.388 253.835 237 263.5 237Z" fill="#079F9F"/>
<path d="M208.5 190C215.404 190 221 184.404 221 177.5C221 170.596 215.404 165 208.5 165C201.596 165 196 170.596 196 177.5C196 184.404 201.596 190 208.5 190Z" fill="#FF3E79"/>
</g>
<defs>
<clipPath id="clip0_63934_9634">
<rect width="838" height="797" fill="white"/>
</clipPath>
</defs>
</svg>
