<svg width="1000" height="1000" viewBox="0 0 1000 1000" fill="none" xmlns="http://www.w3.org/2000/svg">
<rect width="1000" height="1000" rx="500" fill="white"/>
<path d="M327.909 529.717C330.417 532.099 332.409 534.971 333.764 538.154C335.119 541.336 335.808 544.761 335.789 548.22C335.769 555.325 332.938 562.132 327.915 567.156C322.891 572.178 316.085 575.01 308.98 575.029H225.175V708.652C225.195 712.11 224.507 715.537 223.153 718.721C221.8 721.905 219.809 724.779 217.304 727.164C214.854 729.696 211.911 731.701 208.657 733.055C205.404 734.408 201.908 735.081 198.384 735.034C194.924 735.057 191.497 734.369 188.313 733.016C185.128 731.663 182.256 729.67 179.871 727.164C177.364 724.779 175.372 721.907 174.019 718.723C172.665 715.539 171.978 712.11 172.001 708.652V521.837C172.852 493.747 183.065 469.782 202.641 449.942C222.217 430.101 245.904 419.604 273.704 418.45H309.027C312.533 418.395 316.015 419.045 319.265 420.361C322.514 421.677 325.467 423.632 327.947 426.113C330.491 428.513 332.506 431.417 333.863 434.641C335.219 437.864 335.889 441.336 335.827 444.834C335.806 451.938 332.977 458.745 327.952 463.768C322.93 468.792 316.122 471.622 309.018 471.643H276.636C263.31 471.876 250.583 477.216 241.078 486.559C231.573 495.903 226.016 508.535 225.553 521.855H308.961C312.488 521.802 315.991 522.471 319.249 523.823C322.508 525.175 325.456 527.182 327.909 529.717Z" fill="#101010"/>
<path d="M365.794 487.8C363.247 485.399 361.232 482.493 359.877 479.267C358.52 476.041 357.856 472.568 357.924 469.07C357.872 465.545 358.543 462.049 359.897 458.793C361.25 455.54 363.258 452.597 365.794 450.15C368.176 447.64 371.049 445.647 374.233 444.291C377.417 442.935 380.846 442.247 384.306 442.27C391.408 442.293 398.215 445.124 403.236 450.147C408.257 455.171 411.087 461.976 411.106 469.08C411.172 472.577 410.504 476.051 409.149 479.275C407.794 482.501 405.779 485.407 403.236 487.81C400.755 490.286 397.802 492.239 394.552 493.554C391.302 494.869 387.822 495.517 384.316 495.462C380.873 495.493 377.458 494.83 374.276 493.514C371.095 492.197 368.21 490.254 365.794 487.8ZM403.236 529.291C405.742 531.675 407.733 534.545 409.086 537.728C410.44 540.91 411.127 544.337 411.106 547.794V708.612C411.129 712.073 410.441 715.501 409.088 718.685C407.734 721.869 405.742 724.741 403.236 727.126C400.787 729.66 397.844 731.667 394.591 733.02C391.337 734.374 387.84 735.046 384.316 734.996C377.359 734.869 370.723 732.047 365.802 727.126C360.883 722.207 358.061 715.57 357.933 708.612V547.794C358.066 540.839 360.888 534.206 365.807 529.287C370.728 524.367 377.361 521.544 384.316 521.411C387.841 521.363 391.337 522.037 394.591 523.394C397.846 524.749 400.787 526.756 403.236 529.291Z" fill="#101010"/>
<path d="M623.879 553.333C644.589 574.069 654.945 599.175 654.945 628.653C654.945 658.129 644.589 683.236 623.879 703.973C603.174 724.69 578.068 735.045 548.559 735.039H468.558C461.599 734.909 454.963 732.089 450.044 727.168C445.123 722.248 442.301 715.613 442.174 708.655V421.169C442.123 417.646 442.796 414.148 444.15 410.894C445.505 407.641 447.51 404.698 450.044 402.25C452.427 399.742 455.301 397.748 458.485 396.393C461.669 395.037 465.097 394.349 468.558 394.37C475.662 394.389 482.468 397.221 487.492 402.243C492.515 407.267 495.346 414.074 495.366 421.179V536.75C511.46 527.198 529.845 522.195 548.559 522.277C578.068 522.271 603.174 532.623 623.879 553.333ZM586.219 666.257C596.582 655.855 601.758 643.242 601.753 628.417C601.746 613.59 596.569 600.977 586.219 590.577C576.231 580.589 562.684 574.977 548.559 574.977C534.434 574.977 520.888 580.589 510.899 590.577C500.543 600.977 495.366 613.59 495.366 628.417C495.366 643.242 500.543 655.855 510.899 666.257C520.889 676.239 534.436 681.847 548.559 681.847C562.683 681.847 576.229 676.239 586.219 666.257Z" fill="#101010"/>
<path d="M885.972 632.491V631.213C885.119 660.148 874.398 684.687 853.808 704.831C833.216 724.973 808.463 735.044 779.547 735.044C750.039 735.044 724.935 724.69 704.237 703.978C683.538 683.267 673.184 658.162 673.171 628.658C673.171 599.15 683.527 574.043 704.237 553.34C724.948 532.635 750.051 522.279 779.547 522.272C807.346 522.272 831.463 531.776 851.897 550.785C853.307 552.213 854.442 553.34 855.302 554.19H854.877C859.002 559.25 861.111 565.659 860.795 572.18C860.478 578.702 857.76 584.876 853.164 589.514L768.025 674.653C766.348 676.278 764.492 677.706 762.492 678.91C767.969 680.814 773.719 681.821 779.519 681.889C786.526 682.01 793.483 680.694 799.961 678.023C806.441 675.351 812.302 671.381 817.188 666.357C827.537 656.008 832.712 643.454 832.712 628.697C833.463 622.379 836.612 616.592 841.51 612.53C846.46 608.291 852.796 606.018 859.312 606.144C865.69 606.071 871.871 608.343 876.681 612.53C881.578 616.592 884.728 622.379 885.478 628.697H885.905L885.972 632.491ZM741.926 590.678C731.563 601.108 726.389 613.744 726.402 628.582C726.429 632.614 726.858 636.632 727.679 640.578C728.446 639.258 729.456 638.095 730.658 637.154L791.078 576.326C787.304 575.494 783.451 575.063 779.584 575.039C772.571 574.921 765.606 576.247 759.127 578.938C752.649 581.629 746.791 585.625 741.926 590.678Z" fill="#101010"/>
<path d="M245.181 364.305C262.051 364.305 275.727 350.628 275.727 333.759C275.727 316.888 262.051 303.212 245.181 303.212C228.311 303.212 214.635 316.888 214.635 333.759C214.635 350.628 228.311 364.305 245.181 364.305Z" fill="#F8A63F"/>
<path d="M332.279 297.002C346.593 297.002 358.199 285.396 358.199 271.082C358.199 256.766 346.593 245.161 332.279 245.161C317.963 245.161 306.358 256.766 306.358 271.082C306.358 285.396 317.963 297.002 332.279 297.002Z" fill="#079F9F"/>
<path d="M249.52 225.253C259.807 225.253 268.147 216.914 268.147 206.627C268.147 196.339 259.807 188 249.52 188C239.233 188 230.894 196.339 230.894 206.627C230.894 216.914 239.233 225.253 249.52 225.253Z" fill="#FF3E79"/>
</svg>
